# xmcd CD database file
#
# Track frame offsets:
#	150
#	6068
#	83222
#	111721
#	131142
#	175949
#	183889
#	223864
#	228553
#	287786
#
# Disc length: 4115 seconds
#
# Revision: 0
# Processed by: cddbd v1.5.2PL0 Copyright (c) Steve Scherf et al.
# Submitted via: CDex 1.51
#
DISCID=9310110a
DTITLE=Esbjoern Svensson Trio - Leucocyte
DYEAR=2008
DGENRE=Jazz
TTITLE0=Decade
TTITLE1=Premonition -Earth
TTITLE2=Premonition -Contorted
TTITLE3=Jazz
TTITLE4=Still
TTITLE5=Ajar
TTITLE6=Leucocyte -ab initio
TTITLE7=Leucocyte -ad interim
TTITLE8=Leucocyte -ad mortem
TTITLE9=Leucocyte -ad infinitum
EXTD=YEAR: 2008
EXTT0=
EXTT1=
EXTT2=
EXTT3=
EXTT4=
EXTT5=
EXTT6=
EXTT7=
EXTT8=
EXTT9=
PLAYORDER=
